<svg width="28" height="28" viewBox="0 0 32 32" fill="none" xmlns="http://www.w3.org/2000/svg">
<path d="M28.666 8.66667H24.4394L21.9993 6H13.9993V8.66667H20.826L23.266 11.3333H28.666V27.3333H7.33268V15.3333H4.66602V27.3333C4.66602 28.8 5.86602 30 7.33268 30H28.666C30.1327 30 31.3327 28.8 31.3327 27.3333V11.3333C31.3327 9.86667 30.1327 8.66667 28.666 8.66667ZM11.3327 19.3333C11.3327 23.0133 14.3193 26 17.9993 26C21.6793 26 24.666 23.0133 24.666 19.3333C24.666 15.6533 21.6793 12.6667 17.9993 12.6667C14.3193 12.6667 11.3327 15.6533 11.3327 19.3333ZM17.9993 15.3333C20.1994 15.3333 21.9993 17.1333 21.9993 19.3333C21.9993 21.5333 20.1994 23.3333 17.9993 23.3333C15.7993 23.3333 13.9993 21.5333 13.9993 19.3333C13.9993 17.1333 15.7993 15.3333 17.9993 15.3333ZM7.33268 8.66667H11.3327V6H7.33268V2H4.66602V6H0.666016V8.66667H4.66602V12.6667H7.33268V8.66667Z" fill="#EA9DB4"/>
</svg>
