<svg width="27" height="30" viewBox="0 0 27 30" fill="none" xmlns="http://www.w3.org/2000/svg">
<path d="M10.2415 27.2233C10.2415 28.7581 11.5418 30 13.1489 30C14.756 30 16.0562 28.7581 16.0562 27.2233H10.2415ZM13.1489 6.27907C17.1812 6.27907 20.4538 9.40465 20.4538 13.2558V23.0233H5.84394V13.2558C5.84394 9.40465 9.11655 6.27907 13.1489 6.27907ZM13.1489 0C11.9363 0 10.9574 0.934884 10.9574 2.09302V3.72558C6.3699 4.67442 2.92197 8.5814 2.92197 13.2558V21.6279L0 24.4186V25.814H26.2977V24.4186L23.3758 21.6279V13.2558C23.3758 8.5814 19.9278 4.67442 15.3404 3.72558V2.09302C15.3404 0.934884 14.3615 0 13.1489 0Z" fill="#EA9DB4"/>
</svg>
