<?xml version="1.0" ?><!DOCTYPE svg  PUBLIC '-//W3C//DTD SVG 1.1//EN'  'http://www.w3.org/Graphics/SVG/1.1/DTD/svg11.dtd'><svg height="512px" style="enable-background:new 0 0 512 512;" version="1.1" viewBox="0 0 512 512" width="512px" xml:space="preserve" xmlns="http://www.w3.org/2000/svg" xmlns:xlink="http://www.w3.org/1999/xlink"><g id="_x31_51_x2C__Twitter_x2C__Image_x2C__Picture_x2C__Camera"><g><path d="M422,119h-72V96.499C350,81.309,337.69,69,322.5,69h-135C172.31,69,160,81.309,160,96.499V119H88    c-20.99,0-38,17.008-38,37.999v222C50,399.988,67.01,417,88,417h334c20.99,0,38-17.012,38-38.002v-222    C460,136.008,442.99,119,422,119z" style="fill:#D7DEED;"/><g><path d="M400,158.999c11.05,0,20,8.95,20,20s-8.95,20-20,20s-20-8.95-20-20S388.95,158.999,400,158.999z" style="fill:#5B6072;"/></g><g><path d="M255,178.999c49.71,0,90,40.29,90,90c0,49.711-40.29,90-90,90s-90-40.289-90-90     C165,219.289,205.29,178.999,255,178.999z" style="fill:#707487;"/></g></g></g><g id="Layer_1"/></svg>