<svg width="25" height="23" viewBox="0 0 25 23" fill="none" xmlns="http://www.w3.org/2000/svg">
<path d="M18.125 0C15.95 0 13.8625 1.01526 12.5 2.61962C11.1375 1.01526 9.05 0 6.875 0C3.025 0 0 3.03324 0 6.89373C0 11.6316 4.25 15.4921 10.6875 21.358L12.5 23L14.3125 21.3455C20.75 15.4921 25 11.6316 25 6.89373C25 3.03324 21.975 0 18.125 0ZM12.625 19.4905L12.5 19.6158L12.375 19.4905C6.425 14.0883 2.5 10.5161 2.5 6.89373C2.5 4.38692 4.375 2.50681 6.875 2.50681C8.8 2.50681 10.675 3.74768 11.3375 5.46485H13.675C14.325 3.74768 16.2 2.50681 18.125 2.50681C20.625 2.50681 22.5 4.38692 22.5 6.89373C22.5 10.5161 18.575 14.0883 12.625 19.4905Z" fill="#FFC4D5"/>
</svg>
