<svg width="28" height="26" viewBox="0 0 28 26" fill="none" xmlns="http://www.w3.org/2000/svg">
<path d="M20.3 0C17.864 0 15.526 1.13003 14 2.91575C12.474 1.13003 10.136 0 7.7 0C3.388 0 0 3.37613 0 7.67302C0 12.9465 4.76 17.2434 11.97 23.7724L14 25.6L16.03 23.7585C23.24 17.2434 28 12.9465 28 7.67302C28 3.37613 24.612 0 20.3 0ZM14.14 21.6937L14 21.8332C14 17.6633 14 10.1174 14 7C14.728 5.08872 16.7412 2.79019 20.3 2.79019C23.1 2.79019 25.2 4.88283 25.2 7.67302C25.2 11.7049 20.804 15.6809 14.14 21.6937Z" fill="#EA9DB4"/>
</svg>
