<svg width="35" height="32" viewBox="0 0 35 32" fill="none" xmlns="http://www.w3.org/2000/svg">
<path d="M25.375 0C22.33 0 19.4075 1.41253 17.5 3.64469C15.5925 1.41253 12.67 0 9.625 0C4.235 0 0 4.22016 0 9.59128C0 16.1831 5.95 21.5542 14.9625 29.7155L17.5 32L20.0375 29.6981C29.05 21.5542 35 16.1831 35 9.59128C35 4.22016 30.765 0 25.375 0ZM17.675 27.1172L17.5 27.2916L17.325 27.1172C8.995 19.6011 3.5 14.6311 3.5 9.59128C3.5 6.10354 6.125 3.48774 9.625 3.48774C12.32 3.48774 14.945 5.21417 15.8725 7.60327H19.145C20.055 5.21417 22.68 3.48774 25.375 3.48774C28.875 3.48774 31.5 6.10354 31.5 9.59128C31.5 14.6311 26.005 19.6011 17.675 27.1172Z" fill="#EA9DB4"/>
</svg>
