<svg width="151" height="45" viewBox="0 0 151 45" fill="none" xmlns="http://www.w3.org/2000/svg">
<path d="M0 34.9091V0H4.22727V15.5455H22.8409V0H27.0682V34.9091H22.8409V19.2955H4.22727V34.9091H0Z" fill="#EA9DB4"/>
<path d="M45.9631 35.4545C43.4403 35.4545 41.2642 34.8977 39.4347 33.7841C37.6165 32.6591 36.2131 31.0909 35.2244 29.0795C34.2472 27.0568 33.7585 24.7045 33.7585 22.0227C33.7585 19.3409 34.2472 16.9773 35.2244 14.9318C36.2131 12.875 37.5881 11.2727 39.3494 10.125C41.1222 8.96591 43.1903 8.38636 45.554 8.38636C46.9176 8.38636 48.2642 8.61364 49.5938 9.06818C50.9233 9.52273 52.1335 10.2614 53.2244 11.2841C54.3153 12.2955 55.1847 13.6364 55.8324 15.3068C56.4801 16.9773 56.804 19.0341 56.804 21.4773V23.1818H36.6222V19.7045H52.7131C52.7131 18.2273 52.4176 16.9091 51.8267 15.75C51.2472 14.5909 50.4176 13.6761 49.3381 13.0057C48.2699 12.3352 47.0085 12 45.554 12C43.9517 12 42.5653 12.3977 41.3949 13.1932C40.2358 13.9773 39.3438 15 38.7188 16.2614C38.0938 17.5227 37.7812 18.875 37.7812 20.3182V22.6364C37.7812 24.6136 38.1222 26.2898 38.804 27.6648C39.4972 29.0284 40.4574 30.0682 41.6847 30.7841C42.9119 31.4886 44.3381 31.8409 45.9631 31.8409C47.0199 31.8409 47.9744 31.6932 48.8267 31.3977C49.6903 31.0909 50.4347 30.6364 51.0597 30.0341C51.6847 29.4205 52.1676 28.6591 52.5085 27.75L56.3949 28.8409C55.9858 30.1591 55.2983 31.3182 54.3324 32.3182C53.3665 33.3068 52.1733 34.0795 50.7528 34.6364C49.3324 35.1818 47.7358 35.4545 45.9631 35.4545Z" fill="#EA9DB4"/>
<path d="M66.946 0V34.9091H62.9233V0H66.946Z" fill="#EA9DB4"/>
<path d="M74.3139 44.7273V8.72727H78.2003V12.8864H78.6776C78.973 12.4318 79.3821 11.8523 79.9048 11.1477C80.4389 10.4318 81.2003 9.79546 82.1889 9.23864C83.1889 8.67046 84.5412 8.38636 86.2457 8.38636C88.4503 8.38636 90.3935 8.9375 92.0753 10.0398C93.7571 11.142 95.0696 12.7045 96.0128 14.7273C96.956 16.75 97.4276 19.1364 97.4276 21.8864C97.4276 24.6591 96.956 27.0625 96.0128 29.0966C95.0696 31.1193 93.7628 32.6875 92.0923 33.8011C90.4219 34.9034 88.4957 35.4545 86.3139 35.4545C84.6321 35.4545 83.2855 35.1761 82.2741 34.6193C81.2628 34.0511 80.4844 33.4091 79.9389 32.6932C79.3935 31.9659 78.973 31.3636 78.6776 30.8864H78.3366V44.7273H74.3139ZM78.2685 21.8182C78.2685 23.7955 78.5582 25.5398 79.1378 27.0511C79.7173 28.5511 80.5639 29.7273 81.6776 30.5795C82.7912 31.4205 84.1548 31.8409 85.7685 31.8409C87.4503 31.8409 88.8537 31.3977 89.9787 30.5114C91.1151 29.6136 91.9673 28.4091 92.5355 26.8977C93.1151 25.375 93.4048 23.6818 93.4048 21.8182C93.4048 19.9773 93.1207 18.3182 92.5526 16.8409C91.9957 15.3523 91.1492 14.1761 90.0128 13.3125C88.8878 12.4375 87.473 12 85.7685 12C84.1321 12 82.7571 12.4148 81.6435 13.2443C80.5298 14.0625 79.6889 15.2102 79.1207 16.6875C78.5526 18.1534 78.2685 19.8636 78.2685 21.8182Z" fill="#EA9DB4"/>
<path d="M120.064 24.2045V8.72727H124.087V34.9091H120.064V30.4773H119.791C119.178 31.8068 118.223 32.9375 116.928 33.8693C115.632 34.7898 113.996 35.25 112.018 35.25C110.382 35.25 108.928 34.892 107.655 34.1761C106.382 33.4489 105.382 32.358 104.655 30.9034C103.928 29.4375 103.564 27.5909 103.564 25.3636V8.72727H107.587V25.0909C107.587 27 108.121 28.5227 109.189 29.6591C110.268 30.7955 111.643 31.3636 113.314 31.3636C114.314 31.3636 115.331 31.108 116.365 30.5966C117.411 30.0852 118.286 29.3011 118.99 28.2443C119.706 27.1875 120.064 25.8409 120.064 24.2045Z" fill="#EA9DB4"/>
<path d="M150 14.5909L146.386 15.6136C146.159 15.0114 145.824 14.4261 145.381 13.858C144.949 13.2784 144.358 12.8011 143.608 12.4261C142.858 12.0511 141.898 11.8636 140.727 11.8636C139.125 11.8636 137.79 12.233 136.722 12.9716C135.665 13.6989 135.136 14.625 135.136 15.75C135.136 16.75 135.5 17.5398 136.227 18.1193C136.955 18.6989 138.091 19.1818 139.636 19.5682L143.523 20.5227C145.864 21.0909 147.608 21.9602 148.756 23.1307C149.903 24.2898 150.477 25.7841 150.477 27.6136C150.477 29.1136 150.045 30.4545 149.182 31.6364C148.33 32.8182 147.136 33.75 145.602 34.4318C144.068 35.1136 142.284 35.4545 140.25 35.4545C137.58 35.4545 135.369 34.875 133.619 33.7159C131.869 32.5568 130.761 30.8636 130.295 28.6364L134.114 27.6818C134.477 29.0909 135.165 30.1477 136.176 30.8523C137.199 31.5568 138.534 31.9091 140.182 31.9091C142.057 31.9091 143.545 31.5114 144.648 30.7159C145.761 29.9091 146.318 28.9432 146.318 27.8182C146.318 26.9091 146 26.1477 145.364 25.5341C144.727 24.9091 143.75 24.4432 142.432 24.1364L138.068 23.1136C135.67 22.5455 133.909 21.6648 132.784 20.4716C131.67 19.267 131.114 17.7614 131.114 15.9545C131.114 14.4773 131.528 13.1705 132.358 12.0341C133.199 10.8977 134.341 10.0057 135.784 9.35795C137.239 8.71023 138.886 8.38636 140.727 8.38636C143.318 8.38636 145.352 8.95455 146.83 10.0909C148.318 11.2273 149.375 12.7273 150 14.5909Z" fill="#EA9DB4"/>
</svg>
