<svg width="25" height="25" viewBox="0 0 25 25" fill="none" xmlns="http://www.w3.org/2000/svg">
<path d="M22.1712 11.6583C21.5224 10.533 17.954 4.88636 11.8916 5.06884C6.28552 5.21077 3.04148 10.1377 2.1595 11.6583C2.07052 11.8124 2.02368 11.9872 2.02368 12.1652C2.02368 12.3431 2.07052 12.518 2.1595 12.6721C2.79817 13.7771 6.21456 19.2615 12.1856 19.2615H12.4391C18.0452 19.1196 21.2994 14.1927 22.1712 12.6721C22.2602 12.518 22.307 12.3431 22.307 12.1652C22.307 11.9872 22.2602 11.8124 22.1712 11.6583ZM12.3884 17.234C8.01906 17.3354 5.17038 13.5946 4.27827 12.1652C5.29203 10.533 7.93796 7.19775 11.993 7.09637C16.3421 6.98485 19.2009 10.7358 20.1031 12.1652C19.059 13.7974 16.4434 17.1326 12.3884 17.234Z" fill="#7d7d7d"/>
<path d="M12.1651 8.617C11.4634 8.617 10.7774 8.8251 10.1939 9.21498C9.61037 9.60486 9.15559 10.159 8.88703 10.8074C8.61848 11.4557 8.54821 12.1691 8.68512 12.8574C8.82203 13.5457 9.15996 14.1779 9.65618 14.6741C10.1524 15.1703 10.7846 15.5083 11.4729 15.6452C12.1612 15.7821 12.8746 15.7118 13.523 15.4433C14.1713 15.1747 14.7254 14.7199 15.1153 14.1364C15.5052 13.5529 15.7133 12.8669 15.7133 12.1652C15.7133 11.2241 15.3395 10.3217 14.6741 9.65624C14.0086 8.99083 13.1062 8.617 12.1651 8.617ZM12.1651 13.6858C11.8644 13.6858 11.5704 13.5966 11.3203 13.4296C11.0702 13.2625 10.8753 13.025 10.7602 12.7471C10.6451 12.4692 10.615 12.1635 10.6737 11.8685C10.7324 11.5735 10.8772 11.3026 11.0899 11.0899C11.3025 10.8773 11.5735 10.7324 11.8685 10.6738C12.1634 10.6151 12.4692 10.6452 12.747 10.7603C13.0249 10.8754 13.2624 11.0703 13.4295 11.3204C13.5966 11.5704 13.6858 11.8644 13.6858 12.1652C13.6858 12.5685 13.5256 12.9553 13.2404 13.2404C12.9552 13.5256 12.5684 13.6858 12.1651 13.6858Z" fill="#7d7d7d"/>
</svg>
