<svg width="20" height="18" viewBox="0 0 20 18" fill="none" xmlns="http://www.w3.org/2000/svg">
<path d="M10.266 2.89338L11.6299 4.24299C11.7144 4.32732 11.815 4.39425 11.9258 4.43993C12.0366 4.48561 12.1555 4.50913 12.2755 4.50913C12.3955 4.50913 12.5144 4.48561 12.6252 4.43993C12.736 4.39425 12.8366 4.32732 12.9211 4.24299C13.0591 4.09966 13.1455 3.91531 13.1668 3.71849C13.1882 3.52167 13.1434 3.32336 13.0393 3.1543H16.3673C16.6085 3.1543 16.8398 3.05951 17.0103 2.89078C17.1808 2.72204 17.2766 2.49319 17.2766 2.25456C17.2766 2.01594 17.1808 1.78709 17.0103 1.61835C16.8398 1.44962 16.6085 1.35483 16.3673 1.35483H13.0393C13.1434 1.18577 13.1882 0.987465 13.1668 0.790643C13.1455 0.593821 13.0591 0.409466 12.9211 0.266141C12.8366 0.18181 12.736 0.114875 12.6252 0.0691962C12.5144 0.0235176 12.3955 0 12.2755 0C12.1555 0 12.0366 0.0235176 11.9258 0.0691962C11.815 0.114875 11.7144 0.18181 11.6299 0.266141L10.266 1.61575C10.1832 1.70132 10.1183 1.80222 10.075 1.91266C9.98406 2.13172 9.98406 2.37741 10.075 2.59647C10.1183 2.70691 10.1832 2.80781 10.266 2.89338ZM19.9318 6.41136C19.8885 6.30092 19.8236 6.20001 19.7408 6.11445L18.3769 4.76484C18.2924 4.68051 18.1918 4.61357 18.081 4.56789C17.9702 4.52221 17.8513 4.4987 17.7313 4.4987C17.6113 4.4987 17.4924 4.52221 17.3816 4.56789C17.2708 4.61357 17.1702 4.68051 17.0857 4.76484C16.9477 4.90816 16.8613 5.09252 16.84 5.28934C16.8186 5.48616 16.8634 5.68446 16.9675 5.85352H13.6395C13.3983 5.85352 13.167 5.94832 12.9965 6.11705C12.826 6.28578 12.7302 6.51463 12.7302 6.75326C12.7302 6.99189 12.826 7.22074 12.9965 7.38947C13.167 7.55821 13.3983 7.653 13.6395 7.653H16.9675C16.8634 7.82206 16.8186 8.02036 16.84 8.21718C16.8613 8.414 16.9477 8.59836 17.0857 8.74168C17.1702 8.82602 17.2708 8.89295 17.3816 8.93863C17.4924 8.98431 17.6113 9.00783 17.7313 9.00783C17.8513 9.00783 17.9702 8.98431 18.081 8.93863C18.1918 8.89295 18.2924 8.82602 18.3769 8.74168L19.7408 7.39208C19.8236 7.30651 19.8885 7.20561 19.9318 7.09516C20.0227 6.87611 20.0227 6.63041 19.9318 6.41136ZM9.09297 7.20313C8.3736 7.20313 7.67039 7.41421 7.07226 7.80966C6.47412 8.20512 6.00794 8.7672 5.73265 9.42483C5.45736 10.0824 5.38533 10.8061 5.52567 11.5042C5.66601 12.2023 6.01242 12.8436 6.52109 13.3469C7.02976 13.8503 7.67784 14.193 8.38339 14.3319C9.08894 14.4708 9.82025 14.3995 10.4849 14.1271C11.1495 13.8547 11.7175 13.3934 12.1172 12.8016C12.5168 12.2097 12.7302 11.5139 12.7302 10.8021C12.7302 9.84758 12.347 8.93218 11.6649 8.25724C10.9827 7.5823 10.0576 7.20313 9.09297 7.20313ZM9.09297 12.6016C8.73329 12.6016 8.38168 12.496 8.08261 12.2983C7.78355 12.1006 7.55045 11.8195 7.41281 11.4907C7.27516 11.1619 7.23915 10.8001 7.30932 10.451C7.37949 10.102 7.5527 9.78133 7.80703 9.52966C8.06137 9.278 8.38541 9.10662 8.73818 9.03718C9.09095 8.96775 9.45661 9.00339 9.78892 9.13959C10.1212 9.27578 10.4052 9.50643 10.6051 9.80235C10.8049 10.0983 10.9116 10.4462 10.9116 10.8021C10.9116 11.2793 10.72 11.737 10.3789 12.0745C10.0379 12.412 9.57529 12.6016 9.09297 12.6016ZM17.2766 9.90235C17.0355 9.90235 16.8042 9.99714 16.6337 10.1659C16.4631 10.3346 16.3673 10.5635 16.3673 10.8021V15.3008C16.3673 15.5394 16.2715 15.7683 16.101 15.937C15.9305 16.1057 15.6992 16.2005 15.458 16.2005H2.72789C2.48673 16.2005 2.25545 16.1057 2.08492 15.937C1.91439 15.7683 1.81859 15.5394 1.81859 15.3008V8.10287C1.81859 7.86424 1.91439 7.63539 2.08492 7.46666C2.25545 7.29792 2.48673 7.20313 2.72789 7.20313H4.54648C4.74591 7.21279 4.943 7.15723 5.10734 7.04502C5.27168 6.93282 5.39413 6.77022 5.45578 6.58231L5.9468 5.12473C6.00364 4.95143 6.11232 4.79929 6.25845 4.68843C6.40458 4.57758 6.58128 4.51323 6.76517 4.50391H8.18367C8.42483 4.50391 8.65612 4.40912 8.82664 4.24039C8.99717 4.07165 9.09297 3.8428 9.09297 3.60417C9.09297 3.36555 8.99717 3.1367 8.82664 2.96796C8.65612 2.79923 8.42483 2.70443 8.18367 2.70443H6.76517C6.19105 2.70423 5.63149 2.88327 5.16619 3.21606C4.70089 3.54885 4.35357 4.01842 4.17367 4.5579L3.89179 5.40365H2.72789C2.00441 5.40365 1.31056 5.68803 0.798981 6.19423C0.287402 6.70044 0 7.38699 0 8.10287V15.3008C0 16.0167 0.287402 16.7032 0.798981 17.2094C1.31056 17.7156 2.00441 18 2.72789 18H15.458C16.1815 18 16.8754 17.7156 17.387 17.2094C17.8985 16.7032 18.1859 16.0167 18.1859 15.3008V10.8021C18.1859 10.5635 18.0901 10.3346 17.9196 10.1659C17.7491 9.99714 17.5178 9.90235 17.2766 9.90235Z" fill="white"/>
</svg>
