<svg width="168" height="26" viewBox="0 0 168 26" fill="none" xmlns="http://www.w3.org/2000/svg">
<path d="M20.3 0C17.864 0 15.526 1.13003 14 2.91575C12.474 1.13003 10.136 0 7.7 0C3.388 0 0 3.37613 0 7.67302C0 12.9465 4.76 17.2434 11.97 23.7724L14 25.6L16.03 23.7585C23.24 17.2434 28 12.9465 28 7.67302C28 3.37613 24.612 0 20.3 0ZM14.14 21.6937L14 21.8332C14 17.6633 14 10.1174 14 7C14.728 5.08872 16.7412 2.79019 20.3 2.79019C23.1 2.79019 25.2 4.88283 25.2 7.67302C25.2 11.7049 20.804 15.6809 14.14 21.6937Z" fill="#EA9DB4"/>
<path d="M160.3 0C157.864 0 155.526 1.13003 154 2.91575C152.474 1.13003 150.136 0 147.7 0C143.388 0 140 3.37613 140 7.67302C140 12.9465 144.76 17.2434 151.97 23.7724L154 25.6L156.03 23.7585C163.24 17.2434 168 12.9465 168 7.67302C168 3.37613 164.612 0 160.3 0ZM154.14 21.6937L154 21.8332L153.86 21.6937C147.196 15.6809 142.8 11.7049 142.8 7.67302C142.8 4.88283 144.9 2.79019 147.7 2.79019C149.856 2.79019 151.956 4.17134 152.698 6.08262H155.316C156.044 4.17134 158.144 2.79019 160.3 2.79019C163.1 2.79019 165.2 4.88283 165.2 7.67302C165.2 11.7049 160.804 15.6809 154.14 21.6937Z" fill="#EA9DB4"/>
<path d="M125.3 0C122.864 0 120.526 1.13003 119 2.91575C117.474 1.13003 115.136 0 112.7 0C108.388 0 105 3.37613 105 7.67302C105 12.9465 109.76 17.2434 116.97 23.7724L119 25.6L121.03 23.7585C128.24 17.2434 133 12.9465 133 7.67302C133 3.37613 129.612 0 125.3 0ZM119.14 21.6937L119 21.8332L118.86 21.6937C112.196 15.6809 107.8 11.7049 107.8 7.67302C107.8 4.88283 109.9 2.79019 112.7 2.79019C114.856 2.79019 116.956 4.17134 117.698 6.08262H120.316C121.044 4.17134 123.144 2.79019 125.3 2.79019C128.1 2.79019 130.2 4.88283 130.2 7.67302C130.2 11.7049 125.804 15.6809 119.14 21.6937Z" fill="#EA9DB4"/>
<path d="M90.3 0C87.864 0 85.526 1.13003 84 2.91575C82.474 1.13003 80.136 0 77.7 0C73.388 0 70 3.37613 70 7.67302C70 12.9465 74.76 17.2434 81.97 23.7724L84 25.6L86.03 23.7585C93.24 17.2434 98 12.9465 98 7.67302C98 3.37613 94.612 0 90.3 0ZM84.14 21.6937L84 21.8332L83.86 21.6937C77.196 15.6809 72.8 11.7049 72.8 7.67302C72.8 4.88283 74.9 2.79019 77.7 2.79019C79.856 2.79019 81.956 4.17134 82.698 6.08262H85.316C86.044 4.17134 88.144 2.79019 90.3 2.79019C93.1 2.79019 95.2 4.88283 95.2 7.67302C95.2 11.7049 90.804 15.6809 84.14 21.6937Z" fill="#EA9DB4"/>
<path d="M55.3 0C52.864 0 50.526 1.13003 49 2.91575C47.474 1.13003 45.136 0 42.7 0C38.388 0 35 3.37613 35 7.67302C35 12.9465 39.76 17.2434 46.97 23.7724L49 25.6L51.03 23.7585C58.24 17.2434 63 12.9465 63 7.67302C63 3.37613 59.612 0 55.3 0ZM49.14 21.6937L49 21.8332L48.86 21.6937C42.196 15.6809 37.8 11.7049 37.8 7.67302C37.8 4.88283 39.9 2.79019 42.7 2.79019C44.856 2.79019 46.956 4.17134 47.698 6.08262H50.316C51.044 4.17134 53.144 2.79019 55.3 2.79019C58.1 2.79019 60.2 4.88283 60.2 7.67302C60.2 11.7049 55.804 15.6809 49.14 21.6937Z" fill="#EA9DB4"/>
</svg>
