<svg width="320" height="368" viewBox="0 0 320 368" fill="none" xmlns="http://www.w3.org/2000/svg">
<path d="M75.2484 248.757V267.981H80.0724V248.757H75.2484ZM78.6684 256.641V260.529H84.4284V256.641H78.6684ZM69.1284 268.593C62.2524 268.593 57.8244 271.149 57.8244 275.361C57.8244 279.609 62.2524 282.129 69.1284 282.129C75.9684 282.129 80.3964 279.609 80.3964 275.361C80.3964 271.149 75.9684 268.593 69.1284 268.593ZM69.1284 272.409C73.3404 272.409 75.6804 273.345 75.6804 275.361C75.6804 277.341 73.3404 278.313 69.1284 278.313C64.8804 278.313 62.5404 277.341 62.5404 275.361C62.5404 273.345 64.8804 272.409 69.1284 272.409ZM54.9084 262.437V266.253H57.6804C65.2044 266.253 69.0564 266.109 73.1244 265.209L72.6564 261.393C68.6604 262.257 65.0244 262.437 57.6804 262.437H54.9084ZM54.9084 250.989V265.029H59.6604V254.805H69.8124V250.989H54.9084ZM109.77 248.793V273.093H114.594V248.793H109.77ZM92.3816 277.701V281.517H115.422V277.701H92.3816ZM92.3816 270.753V279.681H97.1696V270.753H92.3816ZM94.6856 250.593V253.833C94.6856 258.261 92.3456 262.905 86.7656 264.813L89.1776 268.629C95.6576 266.361 98.6456 260.349 98.6456 253.833V250.593H94.6856ZM95.6576 250.593V253.833C95.6576 260.277 98.5736 265.929 104.874 268.053L107.322 264.237C101.85 262.473 99.5816 258.189 99.5816 253.833V250.593H95.6576ZM130.719 250.953C125.499 250.953 121.503 254.373 121.503 259.161C121.503 263.985 125.499 267.405 130.719 267.405C135.975 267.405 139.899 263.985 139.899 259.161C139.899 254.373 135.975 250.953 130.719 250.953ZM130.719 255.057C133.275 255.057 135.219 256.569 135.219 259.161C135.219 261.789 133.275 263.301 130.719 263.301C128.163 263.301 126.219 261.789 126.219 259.161C126.219 256.569 128.163 255.057 130.719 255.057ZM143.031 248.721V282.165H147.819V248.721H143.031ZM120.711 275.397C126.471 275.397 134.319 275.325 141.555 273.885L141.195 270.429C134.175 271.473 126.003 271.545 120.135 271.545L120.711 275.397ZM174.076 260.313V266.361H178.828V260.313H174.076ZM174.004 249.153V250.161C174.004 253.905 170.44 257.721 162.952 258.621L164.716 262.365C173.212 261.141 178.108 256.317 178.108 250.161V249.153H174.004ZM174.796 249.153V250.161C174.796 256.497 179.692 261.105 188.188 262.365L189.952 258.621C182.392 257.721 178.9 254.049 178.9 250.161V249.153H174.796ZM164.932 270.501V281.733H187.972V270.501H164.932ZM183.292 274.245V277.953H169.648V274.245H183.292ZM161.44 264.345V268.125H191.572V264.345H161.44ZM218.137 248.757V282.093H222.961V248.757H218.137ZM198.697 251.385V257.001C198.697 262.293 198.085 268.089 193.837 271.401L196.897 274.713C201.325 271.113 202.153 263.949 202.153 257.001V251.385H198.697ZM199.813 251.385V257.001C199.813 263.661 200.605 271.473 205.501 275.181L208.093 271.653C203.773 268.161 203.197 262.077 203.197 257.001V251.385H199.813ZM207.841 251.385V257.001C207.841 262.149 207.265 268.197 202.909 271.653L205.501 275.181C210.397 271.509 211.225 263.733 211.225 257.001V251.385H207.841ZM208.921 251.385V257.001C208.921 263.985 209.749 271.293 214.357 274.893L217.237 271.401C213.025 268.125 212.377 262.329 212.377 257.001V251.385H208.921ZM227.674 263.697V267.189H257.878V263.697H227.674ZM231.058 268.845V272.085H249.562V273.741H231.13V279.609H235.882V276.765H254.278V268.845H231.058ZM231.13 278.601V281.841H255.214V278.601H231.13ZM231.382 249.333V252.537H249.49V254.193H231.418V259.917H236.17V257.181H254.206V249.333H231.382ZM231.418 258.909V262.149H254.818V258.909H231.418ZM98.1617 305.357V309.281H104.03V305.357H98.1617ZM94.5977 292.721V326.057H99.4217V292.721H94.5977ZM74.2937 295.925V316.625H79.0817V295.925H74.2937ZM74.2937 313.961V317.921H77.1737C82.0697 317.921 87.4337 317.633 92.9417 316.481L92.4377 312.557C87.0737 313.637 81.9257 313.961 77.1737 313.961H74.2937ZM114.467 311.549V325.085H119.291V311.549H114.467ZM129.695 292.757V326.093H134.483V292.757H129.695ZM106.619 312.953C112.955 312.989 120.371 312.881 127.499 311.909L127.247 308.381C120.371 309.065 112.595 309.101 106.043 309.101L106.619 312.953ZM122.927 314.861V318.569H130.559V314.861H122.927ZM109.031 302.045V305.825H125.483V302.045H109.031ZM109.031 294.341V303.053H113.855V294.341H109.031ZM151.868 296.465V297.437C151.868 300.857 148.34 304.601 140.996 305.501L142.76 309.245C151.22 308.093 156.008 303.305 156.008 297.437V296.465H151.868ZM153.236 296.465V297.437C153.236 303.305 158.024 308.093 166.52 309.245L168.248 305.501C160.904 304.601 157.376 300.857 157.376 297.437V296.465H153.236ZM152.12 313.889V326.129H156.872V313.889H152.12ZM139.556 311.153V314.969H169.688V311.153H139.556ZM142.22 294.449V298.229H166.952V294.449H142.22ZM185.777 303.953V307.841H191.285V303.953H185.777ZM178.649 295.637V301.253C178.649 306.905 176.921 312.845 172.025 315.869L174.905 319.469C180.233 316.193 182.321 308.813 182.321 301.253V295.637H178.649ZM179.693 295.637V301.037C179.693 308.237 181.349 315.437 186.641 318.713L189.233 314.969C184.697 312.017 183.293 306.473 183.293 301.037V295.637H179.693ZM196.721 292.757V326.093H201.293V292.757H196.721ZM189.953 293.261V324.581H194.417V293.261H189.953ZM212.414 309.677V319.037H217.166V309.677H212.414ZM224.51 309.677V319.037H229.298V309.677H224.51ZM205.79 318.353V322.241H235.958V318.353H205.79ZM220.838 294.377C213.638 294.377 208.382 297.905 208.382 303.341C208.382 308.777 213.638 312.269 220.838 312.269C228.002 312.269 233.294 308.777 233.294 303.341C233.294 297.905 228.002 294.377 220.838 294.377ZM220.838 298.121C225.482 298.121 228.578 300.029 228.578 303.341C228.578 306.617 225.482 308.561 220.838 308.561C216.194 308.561 213.098 306.617 213.098 303.341C213.098 300.029 216.194 298.121 220.838 298.121ZM242.788 323.221C241.944 323.221 241.22 322.923 240.615 322.326C240.018 321.721 239.72 320.997 239.72 320.153C239.72 319.318 240.018 318.602 240.615 318.005C241.22 317.409 241.944 317.11 242.788 317.11C243.606 317.11 244.322 317.409 244.936 318.005C245.55 318.602 245.856 319.318 245.856 320.153C245.856 320.715 245.711 321.231 245.422 321.7C245.14 322.16 244.77 322.531 244.309 322.812C243.849 323.085 243.342 323.221 242.788 323.221Z" fill="white"/>
<path d="M108.171 46.2432L86.0599 24.1317C88.3246 18.4333 87.1557 11.7122 82.5532 7.08539C76.9523 1.48446 68.2344 0.973073 62.0246 5.50252L71.3757 14.878L67.9178 18.3116L58.591 8.98483C54.0616 15.1702 54.573 23.9125 60.1739 29.4891C64.7033 34.0185 71.3027 35.2118 76.9523 33.0932L99.1368 55.2777C100.087 56.2274 101.621 56.2274 102.57 55.2777L108.171 49.6768C109.145 48.7514 109.145 47.2172 108.171 46.2432ZM100.866 50.1395L77.829 27.1026C76.3435 28.1984 74.6876 28.8559 72.9586 29.0995C69.6468 29.5865 66.1644 28.5881 63.6319 26.0555C61.3184 23.7664 60.2469 20.6981 60.4174 17.6784L67.9421 25.2032L78.2673 14.878L70.7426 7.35326C73.7622 7.18279 76.8062 8.25428 79.1196 10.5433C81.7496 13.1733 82.7481 16.8018 82.1393 20.1867C81.847 21.9157 81.1165 23.5229 79.9963 24.9596L103.009 47.9721L100.866 50.1395Z" fill="white"/>
<path d="M159.668 4.87036C146.226 4.87036 135.316 15.78 135.316 29.2222C135.316 42.6644 146.226 53.5741 159.668 53.5741C173.11 53.5741 184.02 42.6644 184.02 29.2222C184.02 15.78 173.11 4.87036 159.668 4.87036ZM177.835 22.2089L171.065 25.0093C169.823 21.6975 167.217 19.0675 163.881 17.8499L166.682 11.0801C171.795 13.0282 175.862 17.095 177.835 22.2089ZM159.668 36.5278C155.626 36.5278 152.363 33.2646 152.363 29.2222C152.363 25.1798 155.626 21.9167 159.668 21.9167C163.711 21.9167 166.974 25.1798 166.974 29.2222C166.974 33.2646 163.711 36.5278 159.668 36.5278ZM152.679 11.0557L155.528 17.8255C152.168 19.0431 149.514 21.6975 148.272 25.058L141.502 22.2332C143.474 17.095 147.541 13.0282 152.679 11.0557ZM141.502 36.2112L148.272 33.4107C149.514 36.7713 152.144 39.4013 155.504 40.6189L152.655 47.3887C147.541 45.4162 143.474 41.3494 141.502 36.2112ZM166.682 47.3887L163.881 40.6189C167.217 39.3769 169.847 36.7469 171.065 33.3864L177.835 36.2355C175.862 41.3494 171.795 45.4162 166.682 47.3887Z" fill="white"/>
<path d="M244.416 38.9629L234.675 48.7037H259.027V38.9629H244.416Z" fill="white"/>
<path d="M237.256 17.509L215.193 39.5717V48.7037H224.325L246.388 26.6409L237.256 17.509ZM222.304 43.8333H220.064V41.5929L237.256 24.4005L239.497 26.6409L222.304 43.8333Z" fill="white"/>
<path d="M253.45 19.5789C254.4 18.6291 254.4 17.095 253.45 16.1453L247.752 10.4469C247.265 9.95989 246.656 9.74072 246.023 9.74072C245.414 9.74072 244.781 9.98424 244.318 10.4469L239.862 14.9033L248.994 24.0353L253.45 19.5789Z" fill="white"/>
<g clip-path="url(#clip0_1065_1013)">
<path d="M90.7454 96.4468C93.4241 96.4468 95.6157 94.2551 95.6157 91.5764C95.6157 88.8977 93.4241 86.7061 90.7454 86.7061C88.0667 86.7061 85.875 88.8977 85.875 91.5764C85.875 94.2551 88.0667 96.4468 90.7454 96.4468ZM65.1759 112.275C58.3574 112.275 53 117.633 53 124.451C53 131.27 58.3574 136.627 65.1759 136.627C71.9944 136.627 77.3519 131.27 77.3519 124.451C77.3519 117.633 71.9944 112.275 65.1759 112.275ZM65.1759 132.975C60.5491 132.975 56.6528 129.078 56.6528 124.451C56.6528 119.825 60.5491 115.928 65.1759 115.928C69.8028 115.928 73.6991 119.825 73.6991 124.451C73.6991 129.078 69.8028 132.975 65.1759 132.975ZM79.3 108.623L85.1444 102.778L87.0926 104.726C90.2583 107.892 94.3981 109.84 99.512 109.84V104.97C95.8593 104.97 92.937 103.509 90.7454 101.317L86.1185 96.6903C84.9009 95.7162 83.6833 95.2292 82.2222 95.2292C80.7611 95.2292 79.5435 95.7162 78.813 96.6903L71.9944 103.509C71.0204 104.483 70.5333 105.7 70.5333 106.918C70.5333 108.379 71.0204 109.597 71.9944 110.327L79.787 117.146V129.322H84.6574V114.224L79.3 108.623ZM99.2685 112.275C92.45 112.275 87.0926 117.633 87.0926 124.451C87.0926 131.27 92.45 136.627 99.2685 136.627C106.087 136.627 111.444 131.27 111.444 124.451C111.444 117.633 106.087 112.275 99.2685 112.275ZM99.2685 132.975C94.6417 132.975 90.7454 129.078 90.7454 124.451C90.7454 119.825 94.6417 115.928 99.2685 115.928C103.895 115.928 107.792 119.825 107.792 124.451C107.792 129.078 103.895 132.975 99.2685 132.975Z" fill="white"/>
</g>
<path d="M103 177.389H95.075L90.5 172.389H75.5L70.925 177.389H63C60.25 177.389 58 179.639 58 182.389V212.389C58 215.139 60.25 217.389 63 217.389H103C105.75 217.389 108 215.139 108 212.389V182.389C108 179.639 105.75 177.389 103 177.389ZM103 212.389H63V182.389H73.125L77.7 177.389H88.3L92.875 182.389H103V212.389ZM83 184.889C76.1 184.889 70.5 190.489 70.5 197.389C70.5 204.289 76.1 209.889 83 209.889C89.9 209.889 95.5 204.289 95.5 197.389C95.5 190.489 89.9 184.889 83 184.889ZM83 204.889C78.875 204.889 75.5 201.514 75.5 197.389C75.5 193.264 78.875 189.889 83 189.889C87.125 189.889 90.5 193.264 90.5 197.389C90.5 201.514 87.125 204.889 83 204.889Z" fill="white"/>
<path d="M257.81 122.625C257.81 126.667 254.546 129.931 250.504 129.931H245.634V125.06H252.939V115.32C252.939 110.961 250.041 107.186 245.853 106.017L239.473 104.215C237.403 103.606 235.893 101.658 235.893 99.4908V88.5325H213.976V125.06H221.282V129.931H211.541V134.801H250.504C257.225 134.801 262.68 129.346 262.68 122.625H257.81ZM218.847 120.19V93.4028H231.022V95.838H227.37C226.688 95.838 226.152 96.3738 226.152 97.0556C226.152 97.7375 226.688 98.2732 227.37 98.2732H231.022L231.266 100.708H227.37C226.688 100.708 226.152 101.244 226.152 101.926C226.152 102.608 226.688 103.144 227.37 103.144H231.777C232.873 105.871 235.187 108.038 238.109 108.891L244.489 110.668C246.608 111.253 248.069 113.128 248.069 115.32V120.19H218.847ZM240.763 129.931H226.152V125.06H240.763V129.931Z" fill="white"/>
<path d="M168.729 196.937L163.563 202.102L178.165 216.704L183.33 211.539L168.729 196.937Z" fill="white"/>
<path d="M172.615 189.508C177.315 189.508 181.138 185.685 181.138 180.985C181.138 179.572 180.749 178.257 180.14 177.089L173.565 183.664L169.936 180.035L176.511 173.46C175.343 172.851 174.028 172.462 172.615 172.462C167.915 172.462 164.092 176.285 164.092 180.985C164.092 181.983 164.287 182.933 164.603 183.81L160.098 188.315L155.764 183.98L157.493 182.251L154.059 178.818L159.222 173.655C156.372 170.806 151.746 170.806 148.896 173.655L140.276 182.275L143.709 185.709H136.842L135.113 187.438L143.734 196.059L145.463 194.33V187.438L148.896 190.872L150.625 189.143L154.96 193.477L136.915 211.522L142.078 216.685L169.79 188.997C170.667 189.313 171.617 189.508 172.615 189.508Z" fill="white"/>
<path d="M170.625 113.493C178.15 106.65 185.237 100.246 185.237 94.7422C185.237 90.2371 181.706 86.7061 177.2 86.7061C174.668 86.7061 172.208 87.8993 170.625 89.75C169.018 87.8993 166.583 86.7061 164.05 86.7061C159.545 86.7061 156.014 90.2371 156.014 94.7422C156.014 100.246 163.101 106.65 170.625 113.493ZM164.05 91.5764C165.122 91.5764 166.218 92.0878 166.924 92.9158L170.625 97.2748L174.327 92.9158C175.033 92.0878 176.129 91.5764 177.2 91.5764C179.002 91.5764 180.366 92.9401 180.366 94.7422C180.366 97.4696 175.398 102.462 170.625 106.894C165.852 102.462 160.885 97.4452 160.885 94.7422C160.885 92.9401 162.248 91.5764 164.05 91.5764Z" fill="white"/>
<path d="M177.931 120.799H173.061C173.061 117.876 171.234 115.246 168.507 114.224L153.506 108.623H134.098V135.41H148.709V131.903L165.755 136.627L185.237 130.539V128.104C185.237 124.062 181.973 120.799 177.931 120.799ZM138.968 130.539V113.493H143.838V130.539H138.968ZM165.682 131.538L148.709 126.838V113.493H152.629L166.802 118.777C167.63 119.094 168.19 119.898 168.19 120.799C168.19 120.799 163.344 120.677 162.589 120.433L156.794 118.51L155.259 123.136L161.055 125.06C162.297 125.474 163.588 125.693 164.903 125.693H177.931C178.881 125.693 179.733 126.253 180.123 127.057L165.682 131.538Z" fill="white"/>
<g clip-path="url(#clip1_1065_1013)">
<path d="M254.149 208.722C256.828 208.722 259.019 206.531 259.019 203.852V179.5C259.019 176.821 256.828 174.63 254.149 174.63H215.186C212.507 174.63 210.316 176.821 210.316 179.5V203.852C210.316 206.531 212.507 208.722 215.186 208.722H205.445V213.593H263.89V208.722H254.149ZM215.186 179.5H254.149V203.852H215.186V179.5Z" fill="white"/>
</g>
<defs>
<clipPath id="clip0_1065_1013">
<rect width="58.4444" height="58.4444" fill="white" transform="translate(53 82.4445)"/>
</clipPath>
<clipPath id="clip1_1065_1013">
<rect width="58.4444" height="58.4444" fill="white" transform="translate(205.445 164.889)"/>
</clipPath>
</defs>
</svg>
