<svg width="92" height="112" viewBox="0 0 92 112" fill="none" xmlns="http://www.w3.org/2000/svg">
<g clip-path="url(#clip0_1065_976)">
<path d="M52.5383 6.80325C61.5556 -2.26232 76.1987 -2.27871 85.216 6.80325C94.2334 15.8688 94.2334 30.5901 85.216 39.6557L49.4727 75.6065L16.7949 42.7377L52.5383 6.80325Z" fill="white"/>
<path d="M6.76693 6.81965C15.8006 -2.26231 30.4273 -2.26231 39.4447 6.81965L75.0087 42.5738C75.0576 42.6229 75.1065 42.6393 75.1555 42.6885C77.0796 44.6229 77.0796 47.7377 75.1555 49.6721C73.2313 51.6065 70.1331 51.6065 68.209 49.6721L68.1601 49.7213L51.2341 32.7049L49.6035 34.3442L66.0076 50.836C66.2033 50.9836 66.399 51.1311 66.5784 51.3115C68.5025 53.2459 68.5025 56.3606 66.5784 58.2951C64.6542 60.2295 61.556 60.2295 59.6319 58.2951L59.6156 58.3115L42.6897 41.2951L41.059 42.9344L57.8545 59.8197C57.9034 59.8688 57.9523 59.8852 58.0013 59.9344C59.9254 61.8688 59.9254 64.9836 58.0013 66.918C56.0771 68.8524 52.9789 68.8524 51.0548 66.918C50.9732 66.836 50.908 66.7213 50.8265 66.6229L34.1615 49.8852L32.5308 51.5246L49.4568 68.541L49.4241 68.5738C51.3483 70.5082 51.3483 73.6229 49.4241 75.5574C47.5 77.4918 44.4018 77.4918 42.4777 75.5574L42.4614 75.5737L6.76693 39.6721C-2.25044 30.6065 -2.25044 15.8852 6.76693 6.81965Z" fill="#F9D7E6"/>
<path d="M32.5469 26.9016C32.5469 26.9016 41.9882 33.2951 51.4132 23.8197C56.191 19.0164 57.2998 17.9016 57.2998 17.9016L49.3913 9.95081L32.5469 26.9016Z" fill="white"/>
</g>
<path d="M0 105.655V84H2.5845V93.6434H13.9647V84H16.5492V105.655H13.9647V95.9697H2.5845V105.655H0Z" fill="white"/>
<path d="M28.1013 105.994C26.5589 105.994 25.2284 105.648 24.1099 104.958C22.9983 104.26 22.1402 103.287 21.5358 102.039C20.9383 100.784 20.6396 99.3252 20.6396 97.6615C20.6396 95.9979 20.9383 94.5316 21.5358 93.2628C22.1402 91.9869 22.9809 90.9929 24.0578 90.2809C25.1416 89.5619 26.4061 89.2024 27.8512 89.2024C28.6849 89.2024 29.5082 89.3434 30.321 89.6253C31.1339 89.9073 31.8738 90.3655 32.5408 91C33.2078 91.6273 33.7392 92.4592 34.1353 93.4954C34.5313 94.5316 34.7293 95.8076 34.7293 97.3232V98.3806H22.3904V96.2235H32.2281C32.2281 95.3071 32.0475 94.4894 31.6862 93.7703C31.3319 93.0513 30.8247 92.4838 30.1647 92.0679C29.5116 91.652 28.7404 91.4441 27.8512 91.4441C26.8715 91.4441 26.0239 91.6908 25.3083 92.1842C24.5997 92.6706 24.0543 93.3051 23.6722 94.0875C23.2901 94.87 23.099 95.7089 23.099 96.6041V98.0422C23.099 99.2688 23.3074 100.309 23.7243 101.162C24.1481 102.007 24.7352 102.652 25.4855 103.097C26.2358 103.534 27.1078 103.752 28.1013 103.752C28.7474 103.752 29.331 103.66 29.8521 103.477C30.3801 103.287 30.8351 103.005 31.2173 102.631C31.5994 102.251 31.8947 101.778 32.1031 101.214L34.4792 101.891C34.229 102.709 33.8087 103.428 33.2182 104.048C32.6276 104.661 31.8981 105.141 31.0297 105.486C30.1612 105.825 29.1851 105.994 28.1013 105.994Z" fill="white"/>
<path d="M40.93 84V105.655H38.4705V84H40.93Z" fill="white"/>
<path d="M45.4346 111.746V89.4139H47.8107V91.9939H48.1025C48.2832 91.7119 48.5333 91.3524 48.8529 90.9154C49.1794 90.4713 49.6449 90.0765 50.2493 89.7311C50.8607 89.3786 51.6875 89.2024 52.7296 89.2024C54.0774 89.2024 55.2655 89.5443 56.2937 90.2281C57.322 90.9118 58.1244 91.8811 58.7011 93.1359C59.2777 94.3907 59.566 95.871 59.566 97.5769C59.566 99.297 59.2777 100.788 58.7011 102.05C58.1244 103.304 57.3254 104.277 56.3041 104.968C55.2829 105.652 54.1052 105.994 52.7713 105.994C51.7431 105.994 50.9198 105.821 50.3014 105.476C49.6831 105.123 49.2072 104.725 48.8737 104.281C48.5402 103.83 48.2832 103.456 48.1025 103.16H47.8941V111.746H45.4346ZM47.8524 97.5346C47.8524 98.7612 48.0296 99.8433 48.3839 100.781C48.7382 101.711 49.2558 102.441 49.9367 102.97C50.6175 103.491 51.4513 103.752 52.4378 103.752C53.4661 103.752 54.3241 103.477 55.0119 102.927C55.7067 102.37 56.2277 101.623 56.5751 100.686C56.9294 99.7411 57.1066 98.6907 57.1066 97.5346C57.1066 96.3927 56.9329 95.3635 56.5855 94.4471C56.2451 93.5236 55.7275 92.794 55.0327 92.2583C54.3449 91.7155 53.4799 91.4441 52.4378 91.4441C51.4374 91.4441 50.5967 91.7014 49.9158 92.216C49.235 92.7235 48.7209 93.4355 48.3735 94.3519C48.0261 95.2612 47.8524 96.3222 47.8524 97.5346Z" fill="white"/>
<path d="M73.4056 99.015V89.4139H75.8651V105.655H73.4056V102.906H73.2389C72.8637 103.731 72.2801 104.432 71.4881 105.01C70.6961 105.581 69.6956 105.867 68.4867 105.867C67.4863 105.867 66.597 105.645 65.8189 105.201C65.0407 104.75 64.4294 104.073 63.9847 103.171C63.5401 102.261 63.3177 101.116 63.3177 99.734V89.4139H65.7772V99.5648C65.7772 100.749 66.1037 101.694 66.7568 102.399C67.4168 103.104 68.2575 103.456 69.2788 103.456C69.8902 103.456 70.512 103.297 71.1442 102.98C71.7834 102.663 72.3183 102.177 72.7491 101.521C73.1868 100.865 73.4056 100.03 73.4056 99.015Z" fill="white"/>
<path d="M91.7082 93.0513L89.4989 93.6857C89.3599 93.3121 89.155 92.9491 88.884 92.5966C88.62 92.2371 88.2587 91.941 87.8002 91.7084C87.3416 91.4758 86.7546 91.3595 86.039 91.3595C85.0593 91.3595 84.243 91.5886 83.5899 92.0468C82.9438 92.4979 82.6208 93.0724 82.6208 93.7703C82.6208 94.3907 82.8431 94.8806 83.2877 95.2401C83.7324 95.5996 84.4271 95.8992 85.372 96.1389L87.7481 96.731C89.1793 97.0835 90.2457 97.6228 90.9474 98.3488C91.6491 99.0679 92 99.9949 92 101.13C92 102.06 91.736 102.892 91.208 103.625C90.6869 104.358 89.9574 104.936 89.0195 105.359C88.0816 105.782 86.9908 105.994 85.7472 105.994C84.1145 105.994 82.7632 105.634 81.6932 104.915C80.6233 104.196 79.9459 103.146 79.6611 101.764L81.9955 101.172C82.2178 102.046 82.6381 102.702 83.2565 103.139C83.8817 103.576 84.6981 103.794 85.7055 103.794C86.8518 103.794 87.762 103.548 88.4359 103.054C89.1167 102.554 89.4572 101.955 89.4572 101.257C89.4572 100.693 89.2626 100.22 88.8736 99.8398C88.4845 99.4521 87.887 99.163 87.0811 98.9727L84.4132 98.3383C82.9473 97.9858 81.8704 97.4395 81.1826 96.6993C80.5017 95.9521 80.1613 95.0181 80.1613 93.8972C80.1613 92.9808 80.4149 92.1701 80.9221 91.4652C81.4362 90.7603 82.1344 90.2069 83.0168 89.8051C83.9061 89.4033 84.9135 89.2024 86.039 89.2024C87.623 89.2024 88.8666 89.5548 89.7698 90.2598C90.68 90.9647 91.3261 91.8952 91.7082 93.0513Z" fill="white"/>
<defs>
<clipPath id="clip0_1065_976">
<rect width="92" height="77" fill="white"/>
</clipPath>
</defs>
</svg>
