<svg width="55" height="45" viewBox="0 0 55 45" fill="none" xmlns="http://www.w3.org/2000/svg">
<path d="M30.8631 3.97662C36.1605 -1.32075 44.7628 -1.33033 50.0601 3.97662C55.3575 9.274 55.3575 17.8762 50.0601 23.1736L29.0622 44.1811L9.86523 24.9745L30.8631 3.97662Z" fill="#FABE00"/>
<path d="M3.97303 3.98607C9.27998 -1.32088 17.8727 -1.32088 23.17 3.98607L44.0626 24.8786C44.0913 24.9073 44.12 24.9169 44.1488 24.9457C45.2791 26.076 45.2791 27.8961 44.1488 29.0265C43.0184 30.1568 41.1983 30.1568 40.068 29.0265L40.0392 29.0552L30.0959 19.1119L29.138 20.0698L38.7748 29.7066C38.8897 29.7928 39.0047 29.879 39.11 29.9844C40.2404 31.1148 40.2404 32.9348 39.11 34.0652C37.9797 35.1956 36.1596 35.1956 35.0292 34.0652L35.0197 34.0748L25.0763 24.1314L24.1184 25.0894L33.9851 34.9561C34.0138 34.9848 34.0426 34.9944 34.0713 35.0231C35.2017 36.1535 35.2017 37.9736 34.0713 39.1039C32.941 40.2343 31.1209 40.2343 29.9905 39.1039C29.9426 39.056 29.9043 38.989 29.8564 38.9315L20.0663 29.151L19.1084 30.1089L29.0517 40.0523L29.0326 40.0714C30.1629 41.2018 30.1629 43.0219 29.0326 44.1522C27.9022 45.2826 26.0821 45.2826 24.9518 44.1522L24.9422 44.1618L3.97303 23.1831C-1.32434 17.8857 -1.32434 9.28345 3.97303 3.98607Z" fill="#DC6B94"/>
<path d="M19.1191 15.7205C19.1191 15.7205 24.6656 19.4564 30.2024 13.9195C33.0092 11.1128 33.6606 10.4614 33.6606 10.4614L29.0146 5.81543L19.1191 15.7205Z" fill="#FABE00"/>
</svg>
