<svg width="79" height="66" viewBox="0 0 79 66" fill="none" xmlns="http://www.w3.org/2000/svg">
<g clip-path="url(#clip0_1106_465)">
<path d="M45.1145 5.83119C52.8577 -1.93931 65.4316 -1.95336 73.1748 5.83119C80.918 13.6017 80.918 26.2199 73.1748 33.9904L42.4821 64.8054L14.4219 36.6321L45.1145 5.83119Z" fill="#FABE00"/>
<path d="M5.81129 5.84524C13.5685 -1.9393 26.1284 -1.9393 33.8716 5.84524L64.4102 36.4916C64.4522 36.5338 64.4942 36.5478 64.5362 36.59C66.1885 38.2481 66.1885 40.9178 64.5362 42.5759C62.884 44.234 60.2236 44.234 58.5713 42.5759L58.5293 42.6181L43.9951 28.0326L42.5949 29.4378L56.681 43.5736C56.849 43.7 57.0171 43.8265 57.1711 43.9811C58.8233 45.6392 58.8233 48.3089 57.1711 49.967C55.5188 51.6251 52.8584 51.6251 51.2062 49.967L51.1922 49.9811L36.658 35.3956L35.2578 36.8007L49.68 51.2738C49.722 51.316 49.764 51.33 49.806 51.3722C51.4582 53.0303 51.4582 55.7 49.806 57.3581C48.1537 59.0162 45.4933 59.0162 43.8411 57.3581C43.7711 57.2879 43.715 57.1895 43.645 57.1052L29.3349 42.7586L27.9347 44.1637L42.4689 58.7492L42.4409 58.7773C44.0931 60.4354 44.0931 63.1052 42.4409 64.7633C40.7886 66.4214 38.1282 66.4214 36.4759 64.7633L36.4619 64.7773L5.81129 34.0045C-1.93189 26.234 -1.93189 13.6157 5.81129 5.84524Z" fill="#DC6B94"/>
<path d="M27.9482 23.0586C27.9482 23.0586 36.0555 28.5387 44.1487 20.4169C48.2513 16.2998 49.2035 15.3443 49.2035 15.3443L42.4124 8.5293L27.9482 23.0586Z" fill="#FABE00"/>
</g>
<defs>
<clipPath id="clip0_1106_465">
<rect width="79" height="66" fill="white"/>
</clipPath>
</defs>
</svg>
