<svg width="32" height="32" viewBox="0 0 79 66" fill="none" xmlns="http://www.w3.org/2000/svg">
<g clip-path="url(#clip0_976_737)">
<path d="M45.1145 5.83143C52.8577 -1.93906 65.4316 -1.95311 73.1748 5.83143C80.918 13.6019 80.918 26.2202 73.1748 33.9907L42.4821 64.8057L14.4219 36.6324L45.1145 5.83143Z" fill="#FABE00"/>
<path d="M5.81129 5.84549C13.5685 -1.93906 26.1284 -1.93906 33.8716 5.84549L64.4102 36.4919C64.4522 36.534 64.4942 36.5481 64.5362 36.5902C66.1885 38.2483 66.1885 40.9181 64.5362 42.5762C62.884 44.2342 60.2236 44.2342 58.5713 42.5762L58.5293 42.6183L43.9951 28.0328L42.5949 29.438L56.681 43.5738C56.849 43.7003 57.0171 43.8268 57.1711 43.9813C58.8233 45.6394 58.8233 48.3092 57.1711 49.9673C55.5188 51.6253 52.8584 51.6253 51.2062 49.9673L51.1922 49.9813L36.658 35.3958L35.2578 36.801L49.68 51.2741C49.722 51.3162 49.764 51.3303 49.806 51.3724C51.4582 53.0305 51.4582 55.7003 49.806 57.3584C48.1537 59.0164 45.4933 59.0164 43.8411 57.3584C43.7711 57.2881 43.715 57.1897 43.645 57.1054L29.3349 42.7588L27.9347 44.164L42.4689 58.7495L42.4409 58.7776C44.0931 60.4356 44.0931 63.1054 42.4409 64.7635C40.7886 66.4216 38.1282 66.4216 36.4759 64.7635L36.4619 64.7776L5.81129 34.0047C-1.93189 26.2342 -1.93189 13.616 5.81129 5.84549Z" fill="#DC6B94"/>
<path d="M27.9482 23.0586C27.9482 23.0586 36.0555 28.5387 44.1487 20.4169C48.2513 16.2998 49.2035 15.3443 49.2035 15.3443L42.4124 8.5293L27.9482 23.0586Z" fill="#FABE00"/>
</g>
<defs>
<clipPath id="clip0_976_737">
<rect width="79" height="66" fill="white"/>
</clipPath>
</defs>
</svg>
