<svg width="24" height="24" viewBox="0 0 24 24" fill="none" xmlns="http://www.w3.org/2000/svg">
<path d="M16.398 7.60204C16.2878 7.49093 16.1566 7.40274 16.0122 7.34256C15.8677 7.28238 15.7128 7.25139 15.5563 7.25139C15.3998 7.25139 15.2449 7.28238 15.1004 7.34256C14.956 7.40274 14.8248 7.49093 14.7146 7.60204L12 10.3285L9.28536 7.60204C9.06214 7.37882 8.75938 7.25342 8.4437 7.25342C8.12802 7.25342 7.82526 7.37882 7.60204 7.60204C7.37882 7.82526 7.25342 8.12802 7.25342 8.4437C7.25342 8.75938 7.37882 9.06214 7.60204 9.28536L10.3285 12L7.60204 14.7146C7.49093 14.8248 7.40274 14.956 7.34256 15.1004C7.28238 15.2449 7.25139 15.3998 7.25139 15.5563C7.25139 15.7128 7.28238 15.8677 7.34256 16.0122C7.40274 16.1566 7.49093 16.2878 7.60204 16.398C7.71224 16.5091 7.84335 16.5973 7.98781 16.6574C8.13227 16.7176 8.28721 16.7486 8.4437 16.7486C8.60019 16.7486 8.75513 16.7176 8.89959 16.6574C9.04405 16.5973 9.17516 16.5091 9.28536 16.398L12 13.6715L14.7146 16.398C14.8248 16.5091 14.956 16.5973 15.1004 16.6574C15.2449 16.7176 15.3998 16.7486 15.5563 16.7486C15.7128 16.7486 15.8677 16.7176 16.0122 16.6574C16.1566 16.5973 16.2878 16.5091 16.398 16.398C16.5091 16.2878 16.5973 16.1566 16.6574 16.0122C16.7176 15.8677 16.7486 15.7128 16.7486 15.5563C16.7486 15.3998 16.7176 15.2449 16.6574 15.1004C16.5973 14.956 16.5091 14.8248 16.398 14.7146L13.6715 12L16.398 9.28536C16.5091 9.17516 16.5973 9.04405 16.6574 8.89959C16.7176 8.75513 16.7486 8.60019 16.7486 8.4437C16.7486 8.28721 16.7176 8.13227 16.6574 7.98781C16.5973 7.84335 16.5091 7.71224 16.398 7.60204ZM20.381 3.61899C19.2875 2.48678 17.9794 1.58369 16.5331 0.962415C15.0869 0.341142 13.5313 0.0141253 11.9573 0.000447581C10.3833 -0.0132301 8.82235 0.286705 7.3655 0.882751C5.90865 1.4788 4.58509 2.35902 3.47205 3.47205C2.35902 4.58509 1.4788 5.90865 0.882751 7.3655C0.286705 8.82235 -0.0132301 10.3833 0.000447581 11.9573C0.0141253 13.5313 0.341142 15.0869 0.962415 16.5331C1.58369 17.9794 2.48678 19.2875 3.61899 20.381C4.71251 21.5132 6.02057 22.4163 7.46685 23.0376C8.91313 23.6589 10.4686 23.9859 12.0427 23.9996C13.6167 24.0132 15.1776 23.7133 16.6345 23.1172C18.0914 22.5212 19.4149 21.641 20.5279 20.5279C21.641 19.4149 22.5212 18.0914 23.1172 16.6345C23.7133 15.1776 24.0132 13.6167 23.9996 12.0427C23.9859 10.4686 23.6589 8.91313 23.0376 7.46685C22.4163 6.02057 21.5132 4.71251 20.381 3.61899ZM18.7095 18.7095C17.159 20.2618 15.1183 21.2284 12.9351 21.4447C10.7518 21.661 8.56106 21.1137 6.73611 19.8959C4.91115 18.6781 3.56488 16.8653 2.92666 14.7662C2.28844 12.6671 2.39776 10.4117 3.23599 8.38417C4.07422 6.35666 5.5895 4.6825 7.52367 3.64692C9.45785 2.61134 11.6912 2.27842 13.8434 2.70487C15.9955 3.13132 17.9331 4.29076 19.3263 5.98566C20.7194 7.68055 21.4817 9.80604 21.4835 12C21.4877 13.2462 21.2447 14.4809 20.7686 15.6326C20.2924 16.7843 19.5926 17.8301 18.7095 18.7095Z" fill="#EA9DB4"/>
</svg>
