<svg width="116" height="50" viewBox="0 0 116 50" fill="none" xmlns="http://www.w3.org/2000/svg">
<path d="M53 45.8293V31H54.7698V37.6037H62.5628V31H64.3326V45.8293H62.5628V39.1966H54.7698V45.8293H53Z" fill="#EA9DB4"/>
<path d="M72.2433 46.061C71.1871 46.061 70.276 45.8244 69.51 45.3514C68.7488 44.8735 68.1612 44.2073 67.7473 43.3529C67.3382 42.4936 67.1336 41.4944 67.1336 40.3552C67.1336 39.216 67.3382 38.2119 67.7473 37.343C68.1612 36.4693 68.7369 35.7886 69.4743 35.3011C70.2165 34.8087 71.0824 34.5625 72.072 34.5625C72.6429 34.5625 73.2067 34.659 73.7633 34.8521C74.3199 35.0452 74.8266 35.359 75.2834 35.7934C75.7401 36.2231 76.104 36.7927 76.3752 37.5023C76.6464 38.2119 76.782 39.0856 76.782 40.1235V40.8476H68.3325V39.3704H75.0693C75.0693 38.7429 74.9456 38.1829 74.6982 37.6905C74.4555 37.1982 74.1082 36.8096 73.6563 36.5248C73.2091 36.24 72.681 36.0976 72.072 36.0976C71.4012 36.0976 70.8207 36.2665 70.3307 36.6044C69.8454 36.9375 69.472 37.372 69.2103 37.9078C68.9486 38.4436 68.8178 39.018 68.8178 39.6311V40.6159C68.8178 41.4558 68.9605 42.1678 69.246 42.7519C69.5362 43.3312 69.9382 43.7729 70.452 44.077C70.9658 44.3763 71.5629 44.5259 72.2433 44.5259C72.6857 44.5259 73.0854 44.4632 73.4422 44.3377C73.8037 44.2073 74.1154 44.0142 74.377 43.7584C74.6387 43.4977 74.8409 43.1743 74.9836 42.7881L76.6107 43.2515C76.4395 43.8115 76.1516 44.3039 75.7472 44.7287C75.3428 45.1486 74.8433 45.4769 74.2486 45.7134C73.6539 45.9451 72.9854 46.061 72.2433 46.061Z" fill="#EA9DB4"/>
<path d="M81.0281 31V45.8293H79.344V31H81.0281Z" fill="#EA9DB4"/>
<path d="M84.1129 50V34.7073H85.7399V36.4741H85.9398C86.0635 36.281 86.2347 36.0348 86.4536 35.7355C86.6772 35.4314 86.9959 35.1611 87.4099 34.9245C87.8285 34.6832 88.3947 34.5625 89.1083 34.5625C90.0313 34.5625 90.8448 34.7966 91.549 35.2649C92.2531 35.7331 92.8026 36.3968 93.1975 37.2561C93.5924 38.1153 93.7898 39.1291 93.7898 40.2973C93.7898 41.4751 93.5924 42.4961 93.1975 43.3601C92.8026 44.2194 92.2555 44.8855 91.5561 45.3586C90.8567 45.8269 90.0503 46.061 89.1369 46.061C88.4327 46.061 87.869 45.9427 87.4455 45.7062C87.0221 45.4648 86.6962 45.1921 86.4679 44.888C86.2395 44.579 86.0635 44.3232 85.9398 44.1204H85.797V50H84.1129ZM85.7685 40.2683C85.7685 41.1082 85.8898 41.8492 86.1325 42.4912C86.3751 43.1284 86.7295 43.628 87.1958 43.9901C87.662 44.3473 88.2329 44.5259 88.9085 44.5259C89.6126 44.5259 90.2002 44.3377 90.6712 43.9611C91.1469 43.5798 91.5038 43.0681 91.7416 42.4261C91.9843 41.7792 92.1056 41.06 92.1056 40.2683C92.1056 39.4863 91.9867 38.7815 91.7488 38.154C91.5157 37.5216 91.1612 37.022 90.6855 36.6551C90.2145 36.2834 89.6221 36.0976 88.9085 36.0976C88.2234 36.0976 87.6477 36.2738 87.1815 36.6261C86.7153 36.9737 86.3632 37.4613 86.1253 38.0888C85.8874 38.7115 85.7685 39.438 85.7685 40.2683Z" fill="#EA9DB4"/>
<path d="M103.267 41.282V34.7073H104.951V45.8293H103.267V43.9466H103.153C102.896 44.5114 102.496 44.9917 101.954 45.3876C101.411 45.7786 100.726 45.9741 99.8985 45.9741C99.2134 45.9741 98.6045 45.822 98.0716 45.5179C97.5388 45.209 97.1201 44.7456 96.8156 44.1277C96.5111 43.505 96.3589 42.7205 96.3589 41.7744V34.7073H98.0431V41.6585C98.0431 42.4695 98.2667 43.1164 98.7139 43.5991C99.1659 44.0818 99.7415 44.3232 100.441 44.3232C100.86 44.3232 101.285 44.2146 101.718 43.9973C102.156 43.7801 102.522 43.447 102.817 42.9981C103.117 42.5492 103.267 41.9771 103.267 41.282Z" fill="#EA9DB4"/>
<path d="M115.8 37.1982L114.287 37.6326C114.192 37.3768 114.052 37.1282 113.866 36.8868C113.685 36.6406 113.438 36.4379 113.124 36.2786C112.81 36.1193 112.408 36.0396 111.918 36.0396C111.247 36.0396 110.688 36.1965 110.241 36.5103C109.798 36.8192 109.577 37.2127 109.577 37.6905C109.577 38.1153 109.729 38.4508 110.034 38.697C110.338 38.9432 110.814 39.1484 111.461 39.3125L113.088 39.718C114.068 39.9593 114.799 40.3286 115.279 40.8258C115.76 41.3182 116 41.953 116 42.7302C116 43.3674 115.819 43.937 115.458 44.439C115.101 44.9411 114.601 45.3369 113.959 45.6265C113.317 45.9162 112.57 46.061 111.718 46.061C110.6 46.061 109.675 45.8148 108.942 45.3224C108.209 44.83 107.746 44.1108 107.551 43.1646L109.149 42.7591C109.301 43.3577 109.589 43.8067 110.013 44.1059C110.441 44.4052 111 44.5549 111.69 44.5549C112.475 44.5549 113.098 44.3859 113.559 44.048C114.026 43.7053 114.259 43.295 114.259 42.8171C114.259 42.4309 114.126 42.1075 113.859 41.8468C113.593 41.5813 113.184 41.3834 112.632 41.253L110.805 40.8186C109.801 40.5772 109.063 40.2031 108.592 39.6963C108.126 39.1846 107.893 38.545 107.893 37.7774C107.893 37.1499 108.067 36.5948 108.414 36.112C108.766 35.6293 109.244 35.2504 109.848 34.9752C110.457 34.7001 111.147 34.5625 111.918 34.5625C113.003 34.5625 113.854 34.8039 114.473 35.2866C115.096 35.7693 115.539 36.4065 115.8 37.1982Z" fill="#EA9DB4"/>
<path d="M30.8631 3.97662C36.1605 -1.32075 44.7628 -1.33033 50.0601 3.97662C55.3575 9.274 55.3575 17.8762 50.0601 23.1736L29.0622 44.1811L9.86523 24.9745L30.8631 3.97662Z" fill="#FABE00"/>
<path d="M3.97303 3.98607C9.27998 -1.32088 17.8727 -1.32088 23.17 3.98607L44.0626 24.8786C44.0913 24.9073 44.12 24.9169 44.1488 24.9457C45.2791 26.076 45.2791 27.8961 44.1488 29.0265C43.0184 30.1568 41.1983 30.1568 40.068 29.0265L40.0392 29.0552L30.0959 19.1119L29.138 20.0698L38.7748 29.7066C38.8897 29.7928 39.0047 29.879 39.11 29.9844C40.2404 31.1148 40.2404 32.9348 39.11 34.0652C37.9797 35.1956 36.1596 35.1956 35.0292 34.0652L35.0197 34.0748L25.0763 24.1314L24.1184 25.0894L33.9851 34.9561C34.0138 34.9848 34.0426 34.9944 34.0713 35.0231C35.2017 36.1535 35.2017 37.9736 34.0713 39.1039C32.941 40.2343 31.1209 40.2343 29.9905 39.1039C29.9426 39.056 29.9043 38.989 29.8564 38.9315L20.0663 29.151L19.1084 30.1089L29.0517 40.0523L29.0326 40.0714C30.1629 41.2018 30.1629 43.0219 29.0326 44.1522C27.9022 45.2826 26.0821 45.2826 24.9518 44.1522L24.9422 44.1618L3.97303 23.1831C-1.32434 17.8857 -1.32434 9.28345 3.97303 3.98607Z" fill="#DC6B94"/>
<path d="M19.1191 15.7209C19.1191 15.7209 24.6656 19.4569 30.2024 13.92C33.0092 11.1133 33.6606 10.4619 33.6606 10.4619L29.0146 5.81589L19.1191 15.7209Z" fill="#FABE00"/>
</svg>
