<svg width="109" height="52" viewBox="0 0 109 52" fill="none" xmlns="http://www.w3.org/2000/svg">
<path d="M31.3631 3.97662C36.6605 -1.32075 45.2628 -1.33033 50.5601 3.97662C55.8575 9.274 55.8575 17.8762 50.5601 23.1736L29.5622 44.1811L10.3652 24.9745L31.3631 3.97662Z" fill="#FABE00"/>
<path d="M4.47303 3.98607C9.77998 -1.32088 18.3727 -1.32088 23.67 3.98607L44.5626 24.8786C44.5913 24.9073 44.62 24.9169 44.6488 24.9457C45.7791 26.076 45.7791 27.8961 44.6488 29.0265C43.5184 30.1568 41.6983 30.1568 40.568 29.0265L40.5392 29.0552L30.5959 19.1119L29.638 20.0698L39.2748 29.7066C39.3897 29.7928 39.5047 29.879 39.61 29.9844C40.7404 31.1148 40.7404 32.9348 39.61 34.0652C38.4797 35.1956 36.6596 35.1956 35.5292 34.0652L35.5197 34.0748L25.5763 24.1314L24.6184 25.0894L34.4851 34.9561C34.5138 34.9848 34.5426 34.9944 34.5713 35.0231C35.7017 36.1535 35.7017 37.9736 34.5713 39.1039C33.441 40.2343 31.6209 40.2343 30.4905 39.1039C30.4426 39.056 30.4043 38.989 30.3564 38.9315L20.5663 29.151L19.6084 30.1089L29.5517 40.0523L29.5326 40.0714C30.6629 41.2018 30.6629 43.0219 29.5326 44.1522C28.4022 45.2826 26.5821 45.2826 25.4518 44.1522L25.4422 44.1618L4.47303 23.1831C-0.824344 17.8857 -0.824344 9.28345 4.47303 3.98607Z" fill="#DC6B94"/>
<path d="M19.6191 15.721C19.6191 15.721 25.1656 19.4569 30.7024 13.92C33.5092 11.1133 34.1606 10.4619 34.1606 10.4619L29.5146 5.81592L19.6191 15.721Z" fill="#FABE00"/>
<path d="M55.02 37.66C56.4333 37.66 57.74 37.6733 58.94 37.7C59.5667 35.1667 60.18 33.4067 60.78 32.42C61.18 31.8467 61.58 31.4333 61.98 31.18C62.14 31.0733 62.3 31.02 62.46 31.02C62.6333 31.02 62.72 31.28 62.72 31.8C62.72 32.32 62.6733 32.8667 62.58 33.44C62.5 34.0133 62.3933 34.6733 62.26 35.42C61.82 37.8733 61.4867 39.8333 61.26 41.3C61.0467 42.7667 60.94 44.18 60.94 45.54C60.94 45.9133 60.6733 46.1 60.14 46.1C59.3 46.1 58.7267 45.94 58.42 45.62C58.1133 45.2867 57.96 44.6933 57.96 43.84C57.96 42.9733 58.1333 41.6133 58.48 39.76C57.0133 39.6933 56.0867 39.66 55.7 39.66H54.88C54.7333 39.66 54.5867 39.6667 54.44 39.68C53.84 41.9733 53.54 43.7867 53.54 45.12C53.54 45.9067 52.7733 46.3 51.24 46.3C50.9067 46.3 50.7067 46.1333 50.64 45.8C50.5867 45.4533 50.56 44.9 50.56 44.14C50.56 43.3667 50.8 41.9867 51.28 40C50.4667 40.12 49.8733 40.18 49.5 40.18C49.3267 40.18 49.24 40.1133 49.24 39.98C49.24 39.6867 49.4533 39.3533 49.88 38.98C50.32 38.6067 50.96 38.3067 51.8 38.08C52.2933 36.3733 52.7867 34.9733 53.28 33.88C51.84 33.9067 50.78 34.1867 50.1 34.72C49.8867 34.88 49.7133 35.0267 49.58 35.16C49.4467 35.28 49.3267 35.34 49.22 35.34C49.1267 35.34 49.0333 35.26 48.94 35.1C48.8467 34.94 48.8 34.7267 48.8 34.46C48.8 33.4867 49.62 32.7467 51.26 32.24C52.5667 31.84 54.0867 31.6333 55.82 31.62H55.86C55.9533 31.62 56.08 31.6733 56.24 31.78C56.4133 31.8867 56.5 32.06 56.5 32.3C56.5 32.54 56.4533 32.8133 56.36 33.12C56.28 33.4133 56.1667 33.6333 56.02 33.78C55.94 34.4067 55.6067 35.7 55.02 37.66ZM68.0764 43.82C69.1164 43.82 70.1231 43.4067 71.0964 42.58C71.4564 42.2733 71.7497 41.9933 71.9764 41.74C72.2031 41.4733 72.3764 41.34 72.4964 41.34C72.6831 41.34 72.7764 41.5267 72.7764 41.9C72.7764 42.2733 72.6764 42.6933 72.4764 43.16C72.2764 43.6133 71.9431 44.06 71.4764 44.5C70.3297 45.58 68.7564 46.12 66.7564 46.12C65.1697 46.12 64.0897 45.5467 63.5164 44.4C63.3164 44 63.2164 43.4267 63.2164 42.68C63.2164 41.9333 63.3631 41.16 63.6564 40.36C63.9497 39.5467 64.3364 38.8467 64.8164 38.26C65.3097 37.6733 65.8764 37.22 66.5164 36.9C67.1564 36.5667 67.8364 36.4 68.5564 36.4C69.2897 36.4 69.8497 36.58 70.2364 36.94C70.6364 37.3 70.8364 37.7667 70.8364 38.34C70.8364 38.9133 70.6897 39.3867 70.3964 39.76C70.1164 40.12 69.7497 40.4267 69.2964 40.68C68.8431 40.92 68.3364 41.14 67.7764 41.34C67.2297 41.5267 66.6897 41.74 66.1564 41.98V42.48C66.1697 42.96 66.3697 43.3 66.7564 43.5C67.1431 43.7 67.5831 43.8067 68.0764 43.82ZM67.7364 38.18C67.0431 38.18 66.5631 38.9867 66.2964 40.6C66.5764 40.4133 66.8364 40.2467 67.0764 40.1C67.3297 39.9533 67.5497 39.8133 67.7364 39.68C68.1364 39.3867 68.3431 39.0533 68.3564 38.68C68.3564 38.3467 68.1497 38.18 67.7364 38.18ZM76.2358 46.06C74.3291 46.0733 73.0291 45.36 72.3358 43.92C72.0958 43.4133 71.9758 42.78 71.9758 42.02C71.9758 41.2467 72.0424 40.4267 72.1758 39.56C72.4424 37.8267 72.9558 36.2267 73.7158 34.76C74.1024 34.0133 74.5358 33.3733 75.0158 32.84C76.0691 31.6667 77.2424 31.0867 78.5358 31.1C79.1091 31.1 79.5558 31.26 79.8758 31.58C80.2091 31.8867 80.3758 32.3333 80.3758 32.92C80.3758 33.5067 80.2024 34.1 79.8558 34.7C79.5091 35.2867 79.0624 35.9 78.5158 36.54C77.9824 37.1667 77.3891 37.8267 76.7358 38.52C76.0824 39.2133 75.4424 39.9667 74.8158 40.78V41.58C74.8158 42.3267 74.9758 42.8733 75.2958 43.22C75.6158 43.5667 75.9891 43.74 76.4158 43.74C77.5624 43.74 78.5758 43.1733 79.4558 42.04C79.8158 41.5733 80.0891 41.34 80.2758 41.34C80.4624 41.34 80.5558 41.5667 80.5558 42.02C80.5558 42.4733 80.4291 42.94 80.1758 43.42C79.9358 43.8867 79.6158 44.32 79.2158 44.72C78.8158 45.1067 78.3558 45.4267 77.8358 45.68C77.3158 45.9333 76.7824 46.06 76.2358 46.06ZM77.3158 35.32C77.5958 34.9733 77.8158 34.66 77.9758 34.38C78.1358 34.1 78.2158 33.8133 78.2158 33.52C78.2158 33.2133 78.1091 33.06 77.8958 33.06C77.4291 33.06 76.9091 33.54 76.3358 34.5C75.7758 35.46 75.3558 36.72 75.0758 38.28C75.5291 37.5867 75.9424 37.0067 76.3158 36.54C76.7024 36.0733 77.0358 35.6667 77.3158 35.32ZM83.1534 37.62C83.8468 36.8333 84.7334 36.44 85.8134 36.44C87.3601 36.44 88.3401 37.0667 88.7534 38.32C88.8734 38.6933 88.9334 39.1067 88.9334 39.56C88.9334 40.5733 88.6001 41.5733 87.9334 42.56C87.2801 43.5467 86.4868 44.2133 85.5534 44.56H85.7934C86.7668 44.56 87.7534 44.2 88.7534 43.48C89.3934 43.0267 89.8934 42.56 90.2534 42.08C90.6268 41.5867 90.9068 41.34 91.0934 41.34C91.2801 41.34 91.3734 41.5533 91.3734 41.98C91.3734 42.7267 91.0534 43.48 90.4134 44.24C89.4534 45.3333 88.2268 45.9733 86.7334 46.16C85.6534 46.28 84.8868 46.3 84.4334 46.22C83.9801 46.14 83.6334 46.04 83.3934 45.92C82.8734 45.6533 82.6134 45.2533 82.6134 44.72C82.6134 44.4267 82.6734 44.16 82.7934 43.92C83.8468 43.92 84.6468 43.52 85.1934 42.72C85.7401 41.92 86.0134 40.92 86.0134 39.72C86.0134 39.4267 85.9068 39.1667 85.6934 38.94C85.4801 38.7 85.1934 38.58 84.8334 38.58C84.4868 38.58 84.1068 38.7333 83.6934 39.04C83.2801 39.3467 82.9468 39.7333 82.6934 40.2C82.4534 40.6533 82.2334 41.1067 82.0334 41.56C81.8334 42 81.6734 42.56 81.5534 43.24C81.3401 44.4667 81.0934 46.0133 80.8134 47.88C80.5468 49.76 80.3801 50.7667 80.3134 50.9C80.2468 51.0467 80.1468 51.18 80.0134 51.3C79.8801 51.42 79.7401 51.48 79.5934 51.48C79.3268 51.48 79.1068 51.4 78.9334 51.24C78.4534 50.8267 78.1734 50.5067 78.0934 50.28C78.0134 50.0667 77.9734 49.7867 77.9734 49.44C77.9734 48.1333 78.1934 46.3 78.6334 43.94C79.0734 41.58 79.8334 39.1267 80.9134 36.58C81.0734 36.2067 81.3534 36.02 81.7534 36.02C82.1668 36.02 82.5601 36.38 82.9334 37.1C83.0401 37.2867 83.1134 37.46 83.1534 37.62ZM96.5895 37.56C96.5895 36.6667 97.2829 36.22 98.6695 36.22C99.0162 36.22 99.2295 36.3333 99.3095 36.56C99.4029 36.7867 99.4495 37.1333 99.4495 37.6C99.4495 38.2533 99.3029 39.2667 99.0095 40.64C98.7162 42.0133 98.5762 42.94 98.5895 43.42C98.5895 43.6467 98.6629 43.76 98.8095 43.76C99.0095 43.76 99.2562 43.6333 99.5495 43.38C99.8429 43.1267 100.136 42.8533 100.43 42.56C100.723 42.2533 100.99 41.9733 101.23 41.72C101.483 41.4667 101.656 41.34 101.75 41.34C101.936 41.34 102.03 41.5667 102.03 42.02C102.03 42.9533 101.57 43.8533 100.65 44.72C99.1029 45.6267 98.1229 46.08 97.7095 46.08C97.6695 46.08 97.6362 46.0733 97.6095 46.06C97.1029 46.06 96.7429 45.8933 96.5295 45.56C96.3295 45.2267 96.2029 44.8067 96.1495 44.3C95.8829 44.7933 95.5162 45.22 95.0495 45.58C94.5829 45.9267 94.0495 46.1 93.4495 46.1C92.3962 46.1 91.5829 45.9 91.0095 45.5C90.4495 45.1 90.1695 44.5067 90.1695 43.72C90.1695 43.3733 90.2162 43.0533 90.3095 42.76C90.4162 42.4667 90.5829 42.1067 90.8095 41.68L91.3895 36.76C91.8029 36.44 92.3962 36.28 93.1695 36.28C93.7829 36.28 94.1295 36.68 94.2095 37.48C94.2762 38.1333 94.2429 38.72 94.1095 39.24C93.9895 39.7467 93.8229 40.3933 93.6095 41.18C93.3962 41.9533 93.2895 42.64 93.2895 43.24C93.2895 43.72 93.5895 43.96 94.1895 43.96C94.8429 43.96 95.4095 43.3867 95.8895 42.24C96.2629 41.36 96.5162 40.38 96.6495 39.3C96.6362 39.1933 96.6229 39.06 96.6095 38.9C96.6095 38.7267 96.6029 38.56 96.5895 38.4C96.5895 38.24 96.5895 38.08 96.5895 37.92V37.56ZM105.594 36.32C106.487 36.3067 107.154 36.4733 107.594 36.82C108.034 37.1533 108.254 37.64 108.254 38.28C108.254 38.9067 108.06 39.4467 107.674 39.9C107.3 40.34 106.84 40.6533 106.294 40.84C106.68 41.24 107.027 41.6467 107.334 42.06C107.654 42.4733 107.814 42.9067 107.814 43.36C107.814 44.2533 107.46 44.9467 106.754 45.44C106.047 45.92 105.06 46.16 103.794 46.16C102.54 46.16 101.6 45.9133 100.974 45.42C100.347 44.9133 100.034 44.3467 100.034 43.72C100.034 43.08 100.187 42.5 100.494 41.98C100.814 41.46 101.154 41.2 101.514 41.2C101.727 41.2 101.88 41.28 101.974 41.44C102.067 41.5867 102.24 42.0267 102.494 42.76C102.587 43.0267 102.74 43.28 102.954 43.52C103.447 44.0667 104.227 44.34 105.294 44.34C105.134 43.8333 104.874 43.4 104.514 43.04C104.167 42.6667 103.82 42.3067 103.474 41.96C103.127 41.6133 102.82 41.2467 102.554 40.86C102.287 40.46 102.154 39.9933 102.154 39.46C102.154 38.5 102.514 37.72 103.234 37.12C103.914 36.5867 104.7 36.32 105.594 36.32ZM105.514 40.02C106.047 39.4467 106.314 38.9867 106.314 38.64C106.314 38.48 106.254 38.34 106.134 38.22C106.027 38.0867 105.867 38.02 105.654 38.02C105.44 38.02 105.234 38.0467 105.034 38.1C104.847 38.1533 104.694 38.1933 104.574 38.22C104.574 38.7267 104.887 39.3267 105.514 40.02Z" fill="#DC6B94"/>
</svg>
