<svg width="113" height="51" viewBox="0 0 113 51" fill="none" xmlns="http://www.w3.org/2000/svg">
<path d="M50 46.8293V32H51.7698V38.6037H59.5628V32H61.3326V46.8293H59.5628V40.1966H51.7698V46.8293H50Z" fill="white"/>
<path d="M69.2433 47.061C68.1871 47.061 67.276 46.8244 66.51 46.3514C65.7488 45.8735 65.1612 45.2073 64.7473 44.3529C64.3382 43.4936 64.1336 42.4944 64.1336 41.3552C64.1336 40.216 64.3382 39.2119 64.7473 38.343C65.1612 37.4693 65.7369 36.7886 66.4743 36.3011C67.2165 35.8087 68.0824 35.5625 69.072 35.5625C69.6429 35.5625 70.2067 35.659 70.7633 35.8521C71.3199 36.0452 71.8266 36.359 72.2834 36.7934C72.7401 37.2231 73.104 37.7927 73.3752 38.5023C73.6464 39.2119 73.782 40.0856 73.782 41.1235V41.8476H65.3325V40.3704H72.0693C72.0693 39.7429 71.9456 39.1829 71.6982 38.6905C71.4555 38.1982 71.1082 37.8096 70.6563 37.5248C70.2091 37.24 69.681 37.0976 69.072 37.0976C68.4012 37.0976 67.8207 37.2665 67.3307 37.6044C66.8454 37.9375 66.472 38.372 66.2103 38.9078C65.9486 39.4436 65.8178 40.018 65.8178 40.6311V41.6159C65.8178 42.4558 65.9605 43.1678 66.246 43.7519C66.5362 44.3312 66.9382 44.7729 67.452 45.077C67.9658 45.3763 68.5629 45.5259 69.2433 45.5259C69.6857 45.5259 70.0854 45.4632 70.4422 45.3377C70.8037 45.2073 71.1154 45.0142 71.377 44.7584C71.6387 44.4977 71.8409 44.1743 71.9836 43.7881L73.6107 44.2515C73.4395 44.8115 73.1516 45.3039 72.7472 45.7287C72.3428 46.1486 71.8433 46.4769 71.2486 46.7134C70.6539 46.9451 69.9854 47.061 69.2433 47.061Z" fill="white"/>
<path d="M78.0281 32V46.8293H76.344V32H78.0281Z" fill="white"/>
<path d="M81.1129 51V35.7073H82.7399V37.4741H82.9398C83.0635 37.281 83.2347 37.0348 83.4536 36.7355C83.6772 36.4314 83.9959 36.1611 84.4099 35.9245C84.8285 35.6832 85.3947 35.5625 86.1083 35.5625C87.0313 35.5625 87.8448 35.7966 88.549 36.2649C89.2531 36.7331 89.8026 37.3968 90.1975 38.2561C90.5924 39.1153 90.7898 40.1291 90.7898 41.2973C90.7898 42.4751 90.5924 43.4961 90.1975 44.3601C89.8026 45.2194 89.2555 45.8855 88.5561 46.3586C87.8567 46.8269 87.0503 47.061 86.1369 47.061C85.4327 47.061 84.869 46.9427 84.4455 46.7062C84.0221 46.4648 83.6962 46.1921 83.4679 45.888C83.2395 45.579 83.0635 45.3232 82.9398 45.1204H82.797V51H81.1129ZM82.7685 41.2683C82.7685 42.1082 82.8898 42.8492 83.1325 43.4912C83.3751 44.1284 83.7295 44.628 84.1958 44.9901C84.662 45.3473 85.2329 45.5259 85.9085 45.5259C86.6126 45.5259 87.2002 45.3377 87.6712 44.9611C88.1469 44.5798 88.5038 44.0681 88.7416 43.4261C88.9843 42.7792 89.1056 42.06 89.1056 41.2683C89.1056 40.4863 88.9867 39.7815 88.7488 39.154C88.5157 38.5216 88.1612 38.022 87.6855 37.6551C87.2145 37.2834 86.6221 37.0976 85.9085 37.0976C85.2234 37.0976 84.6477 37.2738 84.1815 37.6261C83.7153 37.9737 83.3632 38.4613 83.1253 39.0888C82.8874 39.7115 82.7685 40.438 82.7685 41.2683Z" fill="white"/>
<path d="M100.267 42.282V35.7073H101.951V46.8293H100.267V44.9466H100.153C99.8958 45.5114 99.4962 45.9917 98.9538 46.3876C98.4114 46.7786 97.7264 46.9741 96.8985 46.9741C96.2134 46.9741 95.6045 46.822 95.0716 46.5179C94.5388 46.209 94.1201 45.7456 93.8156 45.1277C93.5111 44.505 93.3589 43.7205 93.3589 42.7744V35.7073H95.0431V42.6585C95.0431 43.4695 95.2667 44.1164 95.7139 44.5991C96.1659 45.0818 96.7415 45.3232 97.4409 45.3232C97.8596 45.3232 98.2854 45.2146 98.7183 44.9973C99.156 44.7801 99.5223 44.447 99.8173 43.9981C100.117 43.5492 100.267 42.9771 100.267 42.282Z" fill="white"/>
<path d="M112.8 38.1982L111.287 38.6326C111.192 38.3768 111.052 38.1282 110.866 37.8868C110.685 37.6406 110.438 37.4379 110.124 37.2786C109.81 37.1193 109.408 37.0396 108.918 37.0396C108.247 37.0396 107.688 37.1965 107.241 37.5103C106.798 37.8192 106.577 38.2127 106.577 38.6905C106.577 39.1153 106.729 39.4508 107.034 39.697C107.338 39.9432 107.814 40.1484 108.461 40.3125L110.088 40.718C111.068 40.9593 111.799 41.3286 112.279 41.8258C112.76 42.3182 113 42.953 113 43.7302C113 44.3674 112.819 44.937 112.458 45.439C112.101 45.9411 111.601 46.3369 110.959 46.6265C110.317 46.9162 109.57 47.061 108.718 47.061C107.6 47.061 106.675 46.8148 105.942 46.3224C105.209 45.83 104.746 45.1108 104.551 44.1646L106.149 43.7591C106.301 44.3577 106.589 44.8067 107.013 45.1059C107.441 45.4052 108 45.5549 108.69 45.5549C109.475 45.5549 110.098 45.3859 110.559 45.048C111.026 44.7053 111.259 44.295 111.259 43.8171C111.259 43.4309 111.126 43.1075 110.859 42.8468C110.593 42.5813 110.184 42.3834 109.632 42.253L107.805 41.8186C106.801 41.5772 106.063 41.2031 105.592 40.6963C105.126 40.1846 104.893 39.545 104.893 38.7774C104.893 38.1499 105.067 37.5948 105.414 37.112C105.766 36.6293 106.244 36.2504 106.848 35.9752C107.457 35.7001 108.147 35.5625 108.918 35.5625C110.003 35.5625 110.854 35.8039 111.473 36.2866C112.096 36.7693 112.539 37.4065 112.8 38.1982Z" fill="white"/>
<path d="M30.8631 3.97662C36.1605 -1.32075 44.7628 -1.33033 50.0601 3.97662C55.3575 9.274 55.3575 17.8762 50.0601 23.1736L29.0622 44.1811L9.86523 24.9745L30.8631 3.97662Z" fill="white"/>
<path d="M3.97303 3.98607C9.27998 -1.32088 17.8727 -1.32088 23.17 3.98607L44.0626 24.8786C44.0913 24.9073 44.12 24.9169 44.1488 24.9457C45.2791 26.076 45.2791 27.8961 44.1488 29.0265C43.0184 30.1568 41.1983 30.1568 40.068 29.0265L40.0392 29.0552L30.0959 19.1119L29.138 20.0698L38.7748 29.7066C38.8897 29.7928 39.0047 29.879 39.11 29.9844C40.2404 31.1148 40.2404 32.9348 39.11 34.0652C37.9797 35.1956 36.1596 35.1956 35.0292 34.0652L35.0197 34.0748L25.0763 24.1314L24.1184 25.0894L33.9851 34.9561C34.0138 34.9848 34.0426 34.9944 34.0713 35.0231C35.2017 36.1535 35.2017 37.9736 34.0713 39.1039C32.941 40.2343 31.1209 40.2343 29.9905 39.1039C29.9426 39.056 29.9043 38.989 29.8564 38.9315L20.0663 29.151L19.1084 30.1089L29.0517 40.0523L29.0326 40.0714C30.1629 41.2018 30.1629 43.0219 29.0326 44.1522C27.9022 45.2826 26.0821 45.2826 24.9518 44.1522L24.9422 44.1618L3.97303 23.1831C-1.32434 17.8857 -1.32434 9.28345 3.97303 3.98607Z" fill="#FFD7E3"/>
<path d="M19.1191 15.721C19.1191 15.721 24.6656 19.4569 30.2024 13.92C33.0092 11.1133 33.6606 10.4619 33.6606 10.4619L29.0146 5.81592L19.1191 15.721Z" fill="white"/>
</svg>
