<svg width="32" height="38" viewBox="0 0 32 38" fill="none" xmlns="http://www.w3.org/2000/svg">
<path d="M12.4622 34.4828C12.4622 36.427 14.0444 38 16 38C17.9556 38 19.5378 36.427 19.5378 34.4828H12.4622ZM16 7.95349C20.9067 7.95349 24.8889 11.9126 24.8889 16.7907V29.1628H7.11111V16.7907C7.11111 11.9126 11.0933 7.95349 16 7.95349ZM16 0C14.5244 0 13.3333 1.18419 13.3333 2.65116V4.71907C7.75111 5.92093 3.55556 10.8698 3.55556 16.7907V27.3953L0 30.9302V32.6977H32V30.9302L28.4444 27.3953V16.7907C28.4444 10.8698 24.2489 5.92093 18.6667 4.71907V2.65116C18.6667 1.18419 17.4756 0 16 0Z" fill="white"/>
</svg>
